<?xml version="1.0" ?><!DOCTYPE svg  PUBLIC '-//W3C//DTD SVG 1.1//EN'  'http://www.w3.org/Graphics/SVG/1.1/DTD/svg11.dtd'><svg height="8.4666mm" style="shape-rendering:geometricPrecision; text-rendering:geometricPrecision; image-rendering:optimizeQuality; fill-rule:evenodd; clip-rule:evenodd" version="1.1" viewBox="0 0 846.66 846.66" width="8.4666mm" xml:space="preserve" xmlns="http://www.w3.org/2000/svg" xmlns:xlink="http://www.w3.org/1999/xlink"><defs><style type="text/css">
   <![CDATA[
    .fil0 {fill:black;fill-rule:nonzero}
   ]]>
  </style></defs><g id="Layer_x0020_1"><path class="fil0" d="M80.95 10.66l616.28 0c11.41,0 20.65,9.24 20.65,20.64l0 54.68 47.83 0c11.4,0 20.65,9.25 20.65,20.65l0 708.73c0,11.4 -9.25,20.64 -20.65,20.64l-616.28 0c-11.41,0 -20.65,-9.24 -20.65,-20.64l0 -54.68 -47.83 0c-11.4,0 -20.65,-9.25 -20.65,-20.65l0 -708.73c0,-11.4 9.25,-20.64 20.65,-20.64zm88.16 439.1c-27.15,0 -27.15,-41.29 0,-41.29l439.96 0c27.16,0 27.16,41.29 0,41.29l-439.96 0zm0 198.58c-27.15,0 -27.15,-41.29 0,-41.29l439.96 0c27.16,0 27.16,41.29 0,41.29l-439.96 0zm0 -132.38c-27.15,0 -27.15,-41.29 0,-41.29l439.96 0c27.16,0 27.16,41.29 0,41.29l-439.96 0zm0 66.19c-27.15,0 -27.15,-41.29 0,-41.29l439.96 0c27.16,0 27.16,41.29 0,41.29l-439.96 0zm219.98 -417.92c35.57,0 64.42,28.84 64.42,64.42 0,13.31 -4.04,25.68 -10.97,35.95 10.42,7.99 18.92,18.2 24.89,29.9 15.99,-18.29 25.68,-42.23 25.68,-68.44 0,-57.45 -46.57,-104.02 -104.02,-104.02 -57.45,0 -104.02,46.57 -104.02,104.02 0,26.21 9.69,50.15 25.69,68.44 5.96,-11.7 14.46,-21.91 24.88,-29.9 -6.92,-10.27 -10.96,-22.64 -10.96,-35.95 0,-35.58 28.84,-64.42 64.41,-64.42zm16.87 126.6c-5.37,1.45 -11.03,2.23 -16.87,2.23 -5.83,0 -11.49,-0.78 -16.87,-2.23 -13.08,5.05 -23.36,15.91 -27.67,29.26 13.5,6.41 28.6,9.99 44.54,9.99 15.94,0 31.04,-3.58 44.54,-9.99 -4.31,-13.36 -14.57,-24.2 -27.67,-29.26zm-16.87 -85.3c-12.77,0 -23.12,10.35 -23.12,23.12 0,12.77 10.35,23.12 23.12,23.12 12.77,0 23.12,-10.35 23.12,-23.12 0,-12.78 -10.35,-23.12 -23.12,-23.12zm0 -124.78c80.25,0 145.32,65.06 145.32,145.31 0,80.25 -65.07,145.31 -145.32,145.31 -80.25,0 -145.31,-65.06 -145.31,-145.31 0,-80.25 65.06,-145.31 145.31,-145.31zm328.79 46.52l0 612.76c0,11.4 -9.24,20.65 -20.65,20.65l-527.16 0 0 34.03 575 0 0 -667.44 -27.19 0zm-41.29 -75.32l-575 0 0 667.44 575 0 0 -612.76 0 -54.68z"/></g></svg>